# xmcd
#
# Track frame offsets:
#	150
#	20509
#	40157
#	59357
#	78428
#	106845
#	133050
#	147357
#	170311
#	185608
#
# Disc length: 2741 seconds
#
# Revision: 2
# Processed by: cddbd v1.4PL0 Copyright (c) Steve Scherf et al.
# Submitted via: EasyCDDAExtractor 5.1.0
#
DISCID=840ab30a
DTITLE=The Souls of Blues Revival - Preaching the Grease
DYEAR=1999
DGENRE=Funk
TTITLE0=Diggin My Grave
TTITLE1=Make It Funky
TTITLE2=Complicated
TTITLE3=The Letter
TTITLE4=Explanation
TTITLE5=Do You Wanna
TTITLE6=Horsefly
TTITLE7=Tell Me Mama
TTITLE8=Umboobaka
TTITLE9=Dog
EXTD=
EXTT0=
EXTT1=
EXTT2=
EXTT3=
EXTT4=
EXTT5=
EXTT6=
EXTT7=
EXTT8=
EXTT9=
PLAYORDER=
